<?xml version="1.0" encoding="UTF-8"?><svg id="a" xmlns="http://www.w3.org/2000/svg" width="300" height="300" viewBox="0 0 300 300"><defs><style>.b{fill:none;stroke:#000;stroke-miterlimit:10;stroke-width:6px;}.c{fill:#010101;stroke-width:0px;}</style></defs><ellipse class="b" cx="66.347" cy="195.784" rx="56.415" ry="44.969" transform="translate(-138.087 165.122) rotate(-62.75)"/><ellipse class="b" cx="233.653" cy="195.784" rx="56.415" ry="44.969" transform="translate(-47.387 313.859) rotate(-62.75)"/><path class="c" d="m133.312,108.351c3.823,22.06,5.516,44.456,7.222,66.791.625,8.38,1.729,25.273,2.185,33.664.69,11.245,1.239,22.5,1.591,33.776.011.311-.234.573-.546.581-.25.006-.466-.152-.544-.376-5.273-15.356-10.536-32.606-15.181-48.256-7.63-26.714-16.112-54.563-20.375-82.004-1.947-16.962,22.075-20.922,25.649-4.176h0Z"/><path class="c" d="m152.295,98.731c12.921,2.256,32.338,8.704,37.952,22.396,5.559,13.533-5.909,25.915-14.39,34.846-8.659,8.928-17.928,18.524-26.359,27.779-.365.458-1.182.051-.974-.53,3.915-12.272,9.545-24.053,15.414-35.466,1.548-3.205,8.46-15.703,6.76-17.988-.123.019-.275.32-.243.412-.004.068-.121.106-.111.138-.008.006.008.016-.012.014l-.09-.017c-3.586-1.836-8.067-3.397-12.795-4.784-3.648-1.115-7.555-2.162-11.383-3.435-6.346-2.11-9.781-8.965-7.671-15.311,1.95-5.887,8.001-9.253,13.902-8.052h0Z"/><circle class="c" cx="229.022" cy="65.255" r="21.5"/><path class="c" d="m200.33,77.281c7.345,19.096,23.019,34.974,41.439,44.567,9.394,4.651,19.412,8.097,29.752,10.036.329.061.545.378.484.706-.07.337-.37.516-.695.506-30.179,2.35-63.371-6.828-82.766-31.657-3.595-4.931-6.66-10.367-8.757-16.098-4.896-13.886,14.669-21.585,20.543-8.059h0Z"/></svg>